<svg width="280" height="280" viewBox="0 0 280 280" fill="none" xmlns="http://www.w3.org/2000/svg">
  <rect width="280" height="280" fill="#2C2C2E"/>
  <g opacity="0.3">
    <path d="M140 80C140 82.2091 138.209 84 136 84C133.791 84 132 82.2091 132 80C132 77.7909 133.791 76 136 76C138.209 76 140 77.7909 140 80Z" fill="#BDB2FF"/>
    <path d="M148 80C148 82.2091 146.209 84 144 84C141.791 84 140 82.2091 140 80C140 77.7909 141.791 76 144 76C146.209 76 148 77.7909 148 80Z" fill="#BDB2FF"/>
    <path d="M128 88H152V96H128V88Z" fill="#BDB2FF"/>
    <rect x="120" y="96" width="40" height="80" rx="4" fill="#BDB2FF"/>
    <rect x="100" y="136" width="16" height="40" rx="4" fill="#BDB2FF"/>
    <rect x="164" y="136" width="16" height="40" rx="4" fill="#BDB2FF"/>
    <rect x="116" y="176" width="16" height="24" rx="4" fill="#BDB2FF"/>
    <rect x="148" y="176" width="16" height="24" rx="4" fill="#BDB2FF"/>
    <circle cx="136" cy="108" r="4" fill="#2C2C2E"/>
    <circle cx="144" cy="108" r="4" fill="#2C2C2E"/>
    <path d="M136 120C136 117.791 137.791 116 140 116C142.209 116 144 117.791 144 120" stroke="#2C2C2E" stroke-width="2" stroke-linecap="round"/>
  </g>
  <text x="140" y="230" font-family="Arial, sans-serif" font-size="16" fill="#BDB2FF" text-anchor="middle" opacity="0.5">
    Sem Imagem
  </text>
</svg>
